<svg width="116" height="16" viewBox="0 0 116 16" fill="none" xmlns="http://www.w3.org/2000/svg">
<g clip-path="url(#clip0)">
<path d="M67.6924 4.81691C68.7398 4.81691 69.4982 5.29889 69.8954 5.87728V4.92535H71.5928V11.6491C71.5928 13.4565 70.4853 14.8904 68.2944 14.8904C66.4164 14.8904 65.1042 13.9506 64.9357 12.4202H66.609C66.7775 13.0227 67.4035 13.4204 68.2462 13.4204C69.1731 13.4204 69.8954 12.8902 69.8954 11.6491V10.6128C69.4982 11.1912 68.7398 11.7093 67.6924 11.7093C65.9951 11.7093 64.6468 10.3236 64.6468 8.23901C64.6468 6.15442 65.9951 4.81691 67.6924 4.81691ZM80.7024 4.81691C81.7738 4.81691 82.5081 5.32299 82.9054 5.87728V4.92535H84.6027V11.6009H82.9054V10.6248C82.5081 11.2032 81.7497 11.7093 80.6903 11.7093C79.005 11.7093 77.6567 10.3236 77.6567 8.23901C77.6567 6.15442 79.005 4.81691 80.7024 4.81691ZM111.289 4.81691C113.215 4.81691 114.72 6.15442 114.72 8.26311C114.72 10.3598 113.179 11.7093 111.241 11.7093C109.315 11.7093 107.858 10.3598 107.858 8.26311C107.858 6.15442 109.363 4.81691 111.289 4.81691ZM97.3117 4.81691C99.2378 4.81691 100.598 6.13032 100.598 8.11851C100.598 8.33541 100.586 8.5523 100.55 8.7692H95.6745C95.7588 9.75727 96.4329 10.3116 97.2756 10.3116C97.9979 10.3116 98.3952 9.95006 98.6119 9.50422H100.43C100.068 10.7333 98.961 11.7093 97.3117 11.7093C95.3736 11.7093 93.9651 10.3598 93.9651 8.26311C93.9651 6.15442 95.3375 4.81691 97.3117 4.81691ZM43.1894 4.81691C44.2608 4.81691 44.9951 5.32299 45.3924 5.87728V4.92535H47.0897V11.6009H45.3924V10.6248C44.9951 11.2032 44.2367 11.7093 43.1773 11.7093C41.492 11.7093 40.1437 10.3236 40.1437 8.23901C40.1437 6.15442 41.492 4.81691 43.1894 4.81691ZM92.7569 2.68412V11.6009H91.0475V10.6128C90.6503 11.2273 89.9039 11.7093 88.8566 11.7093C87.1592 11.7093 85.8109 10.3236 85.8109 8.23901C85.8109 6.15442 87.1592 4.81691 88.8686 4.81691C89.7474 4.81691 90.5901 5.22659 91.0475 5.85318V2.68412H92.7569ZM60.0997 2.68412V11.6009H58.3903V10.6128C57.993 11.2273 57.2466 11.7093 56.1993 11.7093C54.5019 11.7093 53.1537 10.3236 53.1537 8.23901C53.1537 6.15442 54.5019 4.81691 56.2113 4.81691C57.0901 4.81691 57.9328 5.22659 58.3903 5.85318V2.68412H60.0997ZM102.565 9.70907C103.155 9.70907 103.588 10.1429 103.588 10.6971C103.588 11.2514 103.155 11.6852 102.565 11.6852C101.951 11.6852 101.517 11.2514 101.517 10.6971C101.517 10.1429 101.951 9.70907 102.565 9.70907ZM37.8762 3.27455V4.92535H39.3689V6.31106H37.8762V9.54037C37.8762 9.98621 38.0568 10.179 38.5864 10.179H39.3689V11.6009H38.3096C37.0335 11.6009 36.1788 11.0586 36.1788 9.52832V6.31106H35.3843V4.92535H36.1788V3.27455H37.8762ZM106.626 4.92535V11.6009H104.941V4.92535H106.626ZM52.4631 4.82896V6.60026H52.0177C51.0185 6.60026 50.4166 6.98585 50.4166 8.27516V11.6009H48.7313V4.92535H50.4166V5.96162C50.838 5.27479 51.5362 4.82896 52.4631 4.82896ZM63.4266 4.92535V11.6009H61.7412V4.92535H63.4266ZM76.9662 4.82896V6.60026H76.5208C75.5216 6.60026 74.9197 6.98585 74.9197 8.27516V11.6009H73.2344V4.92535H74.9197V5.96162C75.341 5.27479 76.0392 4.82896 76.9662 4.82896ZM111.265 6.28696C110.374 6.28696 109.568 6.9256 109.568 8.26311C109.568 9.58857 110.338 10.2393 111.241 10.2393C112.132 10.2393 112.986 9.58857 112.986 8.26311C112.986 6.9256 112.156 6.28696 111.265 6.28696ZM68.1258 6.29901C67.2229 6.29901 66.3682 6.9738 66.3682 8.23901C66.3682 9.50422 67.2229 10.2272 68.1258 10.2272C69.0528 10.2272 69.8954 9.52832 69.8954 8.26311C69.8954 6.99789 69.0528 6.29901 68.1258 6.29901ZM56.6327 6.29901C55.7298 6.29901 54.8751 6.9738 54.8751 8.23901C54.8751 9.50422 55.7298 10.2272 56.6327 10.2272C57.5596 10.2272 58.4023 9.52832 58.4023 8.26311C58.4023 6.99789 57.5596 6.29901 56.6327 6.29901ZM81.1358 6.29901C80.2329 6.29901 79.3782 6.9738 79.3782 8.23901C79.3782 9.50422 80.2329 10.2272 81.1358 10.2272C82.0627 10.2272 82.9054 9.52832 82.9054 8.26311C82.9054 6.99789 82.0627 6.29901 81.1358 6.29901ZM43.6227 6.29901C42.7199 6.29901 41.8652 6.9738 41.8652 8.23901C41.8652 9.50422 42.7199 10.2272 43.6227 10.2272C44.5497 10.2272 45.3924 9.52832 45.3924 8.26311C45.3924 6.99789 44.5497 6.29901 43.6227 6.29901ZM89.2899 6.29901C88.3871 6.29901 87.5324 6.9738 87.5324 8.23901C87.5324 9.50422 88.3871 10.2272 89.2899 10.2272C90.2169 10.2272 91.0596 9.52832 91.0596 8.26311C91.0596 6.99789 90.2169 6.29901 89.2899 6.29901ZM97.2636 6.20262C96.457 6.20262 95.819 6.72075 95.6866 7.63653H98.8526C98.8285 6.7569 98.1303 6.20262 97.2636 6.20262ZM62.5959 2.15393C63.1858 2.15393 63.6312 2.58772 63.6312 3.142C63.6312 3.69629 63.1858 4.13008 62.5959 4.13008C61.994 4.13008 61.5607 3.69629 61.5607 3.142C61.5607 2.58772 61.994 2.15393 62.5959 2.15393ZM105.795 2.15393C106.385 2.15393 106.831 2.58772 106.831 3.142C106.831 3.69629 106.385 4.13008 105.795 4.13008C105.193 4.13008 104.76 3.69629 104.76 3.142C104.76 2.58772 105.193 2.15393 105.795 2.15393Z" fill="black"/>
<path d="M4.49357 15.2106V4.27311L0 6.32141V13.8102C0 14.1138 0.174011 14.3906 0.447536 14.5219L3.36376 15.9223C3.47023 15.9735 3.58681 16 3.7049 16C4.14047 16 4.49357 15.6466 4.49357 15.2106Z" fill="#2582FF"/>
<path d="M10.0599 15.2106V1.73583L5.56629 3.78413V13.8102C5.56629 14.1138 5.7403 14.3906 6.01382 14.5219L8.93004 15.9223C9.03651 15.9735 9.15309 16 9.27118 16C9.70676 16 10.0599 15.6466 10.0599 15.2106Z" fill="#2582FF"/>
<path d="M15.6261 15.2106V0.0215693C14.2426 0.113514 12.8726 0.453686 11.5843 1.04093L11.1326 1.24685V13.8102C11.1326 14.1138 11.3066 14.3906 11.5801 14.5219L14.4963 15.9223C14.6028 15.9735 14.7194 16 14.8375 16C15.273 16 15.6261 15.6466 15.6261 15.2106Z" fill="#2582FF"/>
<path d="M20.8469 0.884297C19.5162 0.331259 18.1096 0.0368979 16.6989 0V13.8102C16.6989 14.1138 16.8729 14.3906 17.1464 14.5219L20.0626 15.9223C20.1691 15.9735 20.2857 16 20.4038 16C20.8393 16 21.1924 15.6466 21.1924 15.2106V1.0279L20.8469 0.884297Z" fill="#2582FF"/>
<path d="M26.7559 3.34007L22.2651 1.47372V11.56L26.7559 9.69368L26.7587 6.61058L26.7559 6.42317V3.34007Z" fill="#2582FF"/>
</g>
<defs>
<clipPath id="clip0">
<rect width="115.2" height="16" fill="white"/>
</clipPath>
</defs>
</svg>
